<svg width="42" height="47" viewBox="0 0 42 47" fill="none" xmlns="http://www.w3.org/2000/svg">
<g clip-path="url(#clip0_1_88)">
<path d="M39.7932 20.9499C39.0742 19.9479 38.0894 18.6622 37.482 18.2277C36.9191 17.8251 36.2185 17.3239 35.2847 17.3239C33.1867 17.3239 32.2475 18.6753 32.2475 20.0146C32.2475 20.8149 32.5968 21.2811 32.928 21.6433H17.5123C17.1666 20.9174 16.6187 20.4562 15.9905 20.4562C15.5175 20.4562 15.09 20.7178 14.76 21.1568C14.4299 20.7179 14.0024 20.4562 13.5294 20.4562C13.0564 20.4562 12.6289 20.7179 12.2989 21.1568C11.9689 20.7179 11.5414 20.4562 11.0684 20.4562C10.7675 20.4562 10.485 20.5619 10.2342 20.7518L8.95246 19.0512C8.44922 18.3838 7.56581 18.3063 6.97877 18.8784C6.65507 19.1938 6.49009 19.6409 6.49083 20.0905L5.70746 19.0512C5.20422 18.3838 4.32062 18.3063 3.73377 18.8784C3.41006 19.1938 3.24509 19.6409 3.24583 20.0905L2.46246 19.0512C1.95931 18.3838 1.07581 18.3063 0.488771 18.8784C-0.0981749 19.4504 -0.166201 20.455 0.336856 21.1224L2.12886 23.4999L0.336949 25.8775C-0.166108 26.5448 -0.0980816 27.5496 0.488864 28.1215C0.75285 28.3787 1.07674 28.5045 1.39905 28.5045C1.79349 28.5045 2.18569 28.316 2.46246 27.9487L3.24583 26.9094C3.24509 27.3589 3.41006 27.8059 3.73377 28.1215C3.99776 28.3787 4.32165 28.5045 4.64396 28.5045C5.0384 28.5045 5.4306 28.316 5.70737 27.9487L6.49074 26.9094C6.48999 27.3589 6.65497 27.8061 6.97868 28.1215C7.24266 28.3787 7.56656 28.5045 7.88886 28.5045C8.2833 28.5045 8.6755 28.316 8.95227 27.9487L10.2341 26.2481C10.4849 26.438 10.7674 26.5437 11.0683 26.5437C11.5413 26.5437 11.9687 26.282 12.2988 25.8431C12.6288 26.282 13.0563 26.5437 13.5293 26.5437C14.0023 26.5437 14.4298 26.2821 14.7599 25.8431C15.0899 26.282 15.5174 26.5437 15.9904 26.5437C16.6185 26.5437 17.1665 26.0826 17.5122 25.3566H32.924C32.5938 25.7202 32.2475 26.1885 32.2475 26.9853C32.2475 28.3246 33.1866 29.676 35.2847 29.676C36.2185 29.676 36.9191 29.1748 37.482 28.7722C38.0893 28.3377 39.0741 27.0519 39.7933 26.0498C41.3363 23.8993 41.3363 23.6394 41.3363 23.4999C41.3363 23.3603 41.3363 23.1002 39.7932 20.9499Z" fill="black"/>
</g>
<defs>
<clipPath id="clip0_1_88">
<rect width="41.3363" height="47" fill="white"/>
</clipPath>
</defs>
</svg>
