<svg width="62" height="62" viewBox="0 0 62 62" fill="none" xmlns="http://www.w3.org/2000/svg">
<path d="M57.8412 15.5026C49.2822 0.678219 30.3256 -4.40131 15.5022 4.15755C0.677742 12.7152 -4.40178 31.6728 4.15865 46.498C12.7163 61.3208 31.6725 66.4012 46.4959 57.8425C61.3206 49.2826 66.4025 30.3261 57.8412 15.5026ZM43.3972 52.4716C31.5395 59.3187 16.3731 55.2578 9.52659 43.3985C2.68006 31.5384 6.74352 16.3736 18.6017 9.52707C30.4602 2.67896 45.6258 6.74242 52.4727 18.6022C59.3198 30.4617 55.2558 45.6247 43.3972 52.4716ZM33.1906 23.8931C32.5853 23.2871 31.7935 22.9852 30.9999 22.9852C30.2068 22.9852 29.4146 23.2871 28.8085 23.8931L20.0418 32.6592C18.8311 33.869 18.8311 35.8332 20.0418 37.0429V37.0411C21.2517 38.2516 23.2153 38.2516 24.4244 37.0411L30.9997 30.4676L37.5731 37.0411C38.7842 38.2516 40.7468 38.2516 41.9557 37.0411V37.0429C43.1668 35.8332 43.1668 33.869 41.9557 32.6592L33.1906 23.8931Z" fill="black"/>
</svg>
